<svg xmlns="http://www.w3.org/2000/svg" width="1440" height="900" viewBox="0 0 1440 900" role="img" aria-labelledby="title desc">
  <title id="title">Clawcenter agents org chart screenshot</title>
  <desc id="desc">Mock Clawcenter dashboard showing a fake OpenClaw agent org chart.</desc>
  <rect width="1440" height="900" fill="#050505"/>
  <rect x="0" y="0" width="240" height="900" fill="#080808"/>
  <path d="M240 0v900" stroke="#252525"/>
  <text x="28" y="42" fill="#8f8f98" font-family="Inter, Arial, sans-serif" font-size="12" letter-spacing="2">OPENCLAW</text>
  <text x="28" y="67" fill="#f4f4f5" font-family="Inter, Arial, sans-serif" font-size="18" font-weight="700">Clawcenter</text>
  <g font-family="Inter, Arial, sans-serif" font-size="14">
    <text x="28" y="128" fill="#9ca3af">Workspace</text>
    <rect x="18" y="150" width="204" height="36" rx="8" fill="#242427"/>
    <rect x="30" y="160" width="16" height="16" rx="5" fill="#f4f4f5" opacity=".08"/>
    <text x="58" y="173" fill="#f4f4f5" font-weight="600">Agents org chart</text>
    <text x="58" y="222" fill="#9ca3af">Schedules</text>
    <text x="58" y="269" fill="#9ca3af">Main files</text>
    <text x="58" y="316" fill="#9ca3af">Skills</text>
    <text x="58" y="363" fill="#9ca3af">Activity</text>
  </g>
  <rect x="240" y="0" width="1200" height="56" fill="#050505"/>
  <path d="M240 56h1200" stroke="#252525"/>
  <text x="272" y="35" fill="#8f8f98" font-family="Inter, Arial, sans-serif" font-size="14">Views</text>
  <text x="319" y="35" fill="#8f8f98" font-family="Inter, Arial, sans-serif" font-size="14">/</text>
  <text x="338" y="35" fill="#f4f4f5" font-family="Inter, Arial, sans-serif" font-size="14" font-weight="700">Agents org chart</text>
  <rect x="1268" y="17" width="84" height="26" rx="13" fill="#1f1f22"/>
  <text x="1288" y="35" fill="#f4f4f5" font-family="Inter, Arial, sans-serif" font-size="12">Refresh</text>
  <pattern id="grid" width="28" height="28" patternUnits="userSpaceOnUse">
    <circle cx="1" cy="1" r="1" fill="#3f3f46"/>
  </pattern>
  <rect x="240" y="56" width="1200" height="844" fill="url(#grid)"/>
  <g stroke="#3a3a40" stroke-width="2" fill="none">
    <path d="M836 214v70"/>
    <path d="M552 284h568"/>
    <path d="M552 284v70"/>
    <path d="M836 284v70"/>
    <path d="M1120 284v70"/>
    <path d="M1120 444v70"/>
    <path d="M942 514h356"/>
    <path d="M942 514v70"/>
    <path d="M1298 514v70"/>
  </g>
  <g font-family="Inter, Arial, sans-serif">
    <g transform="translate(716 144)">
      <rect width="240" height="96" rx="14" fill="#18181b" stroke="#2d2d32"/>
      <rect x="18" y="24" width="44" height="44" rx="12" fill="#25252a"/>
      <text x="32" y="52" fill="#f4f4f5" font-size="16" font-weight="700">A</text>
      <text x="78" y="39" fill="#f4f4f5" font-size="16" font-weight="700">Atlas</text>
      <text x="78" y="60" fill="#a1a1aa" font-size="13">Chief Operator</text>
      <text x="78" y="78" fill="#71717a" font-size="12">openai/gpt-5.4</text>
    </g>
    <g transform="translate(432 354)">
      <rect width="240" height="96" rx="14" fill="#18181b" stroke="#2d2d32"/>
      <rect x="18" y="24" width="44" height="44" rx="12" fill="#25252a"/>
      <text x="31" y="52" fill="#f4f4f5" font-size="16" font-weight="700">R</text>
      <text x="78" y="39" fill="#f4f4f5" font-size="16" font-weight="700">Revenue</text>
      <text x="78" y="60" fill="#a1a1aa" font-size="13">Pipeline Agent</text>
      <text x="78" y="78" fill="#71717a" font-size="12">anthropic/claude-sonnet</text>
    </g>
    <g transform="translate(716 354)">
      <rect width="240" height="96" rx="14" fill="#18181b" stroke="#2d2d32"/>
      <rect x="18" y="24" width="44" height="44" rx="12" fill="#25252a"/>
      <text x="31" y="52" fill="#f4f4f5" font-size="16" font-weight="700">C</text>
      <text x="78" y="39" fill="#f4f4f5" font-size="16" font-weight="700">Care</text>
      <text x="78" y="60" fill="#a1a1aa" font-size="13">Support Agent</text>
      <text x="78" y="78" fill="#71717a" font-size="12">openai/gpt-5.4-mini</text>
    </g>
    <g transform="translate(1000 354)">
      <rect width="240" height="96" rx="14" fill="#18181b" stroke="#2d2d32"/>
      <rect x="18" y="24" width="44" height="44" rx="12" fill="#25252a"/>
      <text x="31" y="52" fill="#f4f4f5" font-size="16" font-weight="700">O</text>
      <text x="78" y="39" fill="#f4f4f5" font-size="16" font-weight="700">Ops</text>
      <text x="78" y="60" fill="#a1a1aa" font-size="13">Automation Agent</text>
      <text x="78" y="78" fill="#71717a" font-size="12">openrouter/gemini</text>
    </g>
    <g transform="translate(822 584)">
      <rect width="240" height="96" rx="14" fill="#18181b" stroke="#2d2d32"/>
      <rect x="18" y="24" width="44" height="44" rx="12" fill="#25252a"/>
      <text x="32" y="52" fill="#f4f4f5" font-size="16" font-weight="700">S</text>
      <text x="78" y="39" fill="#f4f4f5" font-size="16" font-weight="700">Scout</text>
      <text x="78" y="60" fill="#a1a1aa" font-size="13">Research Agent</text>
      <text x="78" y="78" fill="#71717a" font-size="12">perplexity/sonar</text>
    </g>
    <g transform="translate(1178 584)">
      <rect width="240" height="96" rx="14" fill="#18181b" stroke="#2d2d32"/>
      <rect x="18" y="24" width="44" height="44" rx="12" fill="#25252a"/>
      <text x="31" y="52" fill="#f4f4f5" font-size="16" font-weight="700">W</text>
      <text x="78" y="39" fill="#f4f4f5" font-size="16" font-weight="700">Writer</text>
      <text x="78" y="60" fill="#a1a1aa" font-size="13">Content Agent</text>
      <text x="78" y="78" fill="#71717a" font-size="12">openai/gpt-5.4</text>
    </g>
  </g>
</svg>
