<svg xmlns="http://www.w3.org/2000/svg" width="1440" height="900" viewBox="0 0 1440 900" role="img" aria-labelledby="title desc">
  <title id="title">Clawcenter schedules screenshot</title>
  <desc id="desc">Mock Clawcenter schedules page showing fake OpenClaw heartbeat and cron jobs.</desc>
  <rect width="1440" height="900" fill="#f7f7f8"/>
  <rect x="0" y="0" width="240" height="900" fill="#fafafa"/>
  <path d="M240 0v900" stroke="#dedee3"/>
  <text x="28" y="42" fill="#6b7280" font-family="Inter, Arial, sans-serif" font-size="12" letter-spacing="2">OPENCLAW</text>
  <text x="28" y="67" fill="#18181b" font-family="Inter, Arial, sans-serif" font-size="18" font-weight="700">Clawcenter</text>
  <g font-family="Inter, Arial, sans-serif" font-size="14">
    <text x="28" y="128" fill="#6b7280">Workspace</text>
    <text x="58" y="173" fill="#6b7280">Agents org chart</text>
    <rect x="18" y="198" width="204" height="36" rx="8" fill="#e8e8eb"/>
    <text x="58" y="222" fill="#18181b" font-weight="600">Schedules</text>
    <text x="58" y="269" fill="#6b7280">Main files</text>
    <text x="58" y="316" fill="#6b7280">Skills</text>
    <text x="58" y="363" fill="#6b7280">Activity</text>
  </g>
  <rect x="240" y="0" width="1200" height="56" fill="#fafafa"/>
  <path d="M240 56h1200" stroke="#dedee3"/>
  <text x="272" y="35" fill="#6b7280" font-family="Inter, Arial, sans-serif" font-size="14">Views</text>
  <text x="319" y="35" fill="#6b7280" font-family="Inter, Arial, sans-serif" font-size="14">/</text>
  <text x="338" y="35" fill="#18181b" font-family="Inter, Arial, sans-serif" font-size="14" font-weight="700">Schedules</text>
  <rect x="1268" y="17" width="84" height="26" rx="13" fill="#efeff1"/>
  <text x="1288" y="35" fill="#18181b" font-family="Inter, Arial, sans-serif" font-size="12">Refresh</text>
  <rect x="240" y="56" width="300" height="844" fill="#fbfbfc"/>
  <path d="M540 56v844" stroke="#dedee3"/>
  <text x="272" y="102" fill="#6b7280" font-family="Inter, Arial, sans-serif" font-size="12" letter-spacing="2">SCHEDULES</text>
  <text x="272" y="126" fill="#18181b" font-family="Inter, Arial, sans-serif" font-size="18" font-weight="700">Agents</text>
  <g font-family="Inter, Arial, sans-serif" font-size="14">
    <rect x="260" y="154" width="260" height="36" rx="8" fill="#e8e8eb"/>
    <text x="280" y="177" fill="#18181b" font-weight="700">Atlas</text>
    <text x="468" y="177" fill="#6b7280">4 jobs</text>
    <text x="280" y="227" fill="#6b7280">Revenue</text>
    <text x="468" y="227" fill="#6b7280">3 jobs</text>
    <text x="280" y="277" fill="#6b7280">Care</text>
    <text x="475" y="277" fill="#6b7280">1 job</text>
    <text x="280" y="327" fill="#6b7280">Ops</text>
    <text x="468" y="327" fill="#6b7280">5 jobs</text>
    <text x="280" y="377" fill="#6b7280">Scout</text>
    <text x="468" y="377" fill="#6b7280">2 jobs</text>
    <text x="280" y="427" fill="#6b7280">Writer</text>
    <text x="468" y="427" fill="#6b7280">3 jobs</text>
  </g>
  <g font-family="Inter, Arial, sans-serif">
    <rect x="540" y="56" width="900" height="64" fill="#fbfbfc"/>
    <path d="M540 120h900" stroke="#dedee3"/>
    <rect x="572" y="78" width="104" height="36" rx="18" fill="#e8e8eb"/>
    <text x="598" y="101" fill="#18181b" font-size="14" font-weight="700">Heartbeat</text>
    <text x="714" y="101" fill="#6b7280" font-size="14">Crons (4)</text>
    <text x="818" y="101" fill="#6b7280" font-size="14">New cron</text>
    <rect x="1294" y="80" width="54" height="28" rx="14" fill="#dcfce7"/>
    <text x="1310" y="99" fill="#15803d" font-size="12" font-weight="700">60m</text>
    <text x="572" y="164" fill="#6b7280" font-size="12" letter-spacing="2">HEARTBEAT</text>
    <text x="572" y="190" fill="#18181b" font-size="18" font-weight="700">Atlas</text>
    <g font-size="12" fill="#6b7280" letter-spacing="1.6">
      <text x="572" y="240">EVERY</text>
      <text x="950" y="240">TARGET</text>
      <text x="572" y="314">ACTIVE FROM</text>
      <text x="950" y="314">ACTIVE UNTIL</text>
      <text x="572" y="388">MODEL OVERRIDE</text>
    </g>
    <g font-size="14" fill="#18181b">
      <rect x="572" y="252" width="330" height="36" rx="10" fill="#e8e8eb"/>
      <text x="590" y="275">60m</text>
      <rect x="950" y="252" width="390" height="36" rx="10" fill="#e8e8eb"/>
      <text x="968" y="275">last event</text>
      <rect x="572" y="326" width="330" height="36" rx="10" fill="#e8e8eb"/>
      <text x="590" y="349">08:00</text>
      <rect x="950" y="326" width="390" height="36" rx="10" fill="#e8e8eb"/>
      <text x="968" y="349">22:00</text>
      <rect x="572" y="400" width="768" height="36" rx="10" fill="#e8e8eb"/>
      <text x="590" y="423">openai/gpt-5.4</text>
    </g>
    <rect x="572" y="462" width="70" height="36" rx="18" fill="#0a84ff"/>
    <text x="596" y="485" fill="#fff" font-size="14" font-weight="700">Save</text>
    <rect x="654" y="462" width="86" height="36" rx="18" fill="#ef4444"/>
    <text x="676" y="485" fill="#fff" font-size="14" font-weight="700">Remove</text>
    <path d="M540 538h900" stroke="#dedee3"/>
    <text x="572" y="582" fill="#6b7280" font-size="12" letter-spacing="2">CRON JOBS</text>
    <text x="572" y="606" fill="#18181b" font-size="18" font-weight="700">4 scheduled jobs</text>
    <rect x="572" y="638" width="768" height="184" rx="16" fill="#fff" stroke="#dedee3"/>
    <g font-size="13" fill="#6b7280">
      <text x="600" y="674">Job</text>
      <text x="936" y="674">Status</text>
      <text x="1040" y="674">Schedule</text>
      <text x="1210" y="674">Actions</text>
    </g>
    <path d="M572 690h768" stroke="#dedee3"/>
    <g font-size="14">
      <text x="600" y="724" fill="#18181b" font-weight="700">inventory-risk-scan</text>
      <text x="600" y="746" fill="#6b7280">Find low-stock variants with high sell-through.</text>
      <rect x="936" y="708" width="58" height="24" rx="12" fill="#dcfce7"/>
      <text x="950" y="725" fill="#15803d" font-size="12" font-weight="700">active</text>
      <rect x="1040" y="708" width="128" height="24" rx="12" fill="#efeff1"/>
      <text x="1056" y="725" fill="#18181b" font-size="12">Weekdays 08:30</text>
      <text x="1210" y="725" fill="#2563eb" font-size="13">Edit</text>
      <text x="1260" y="725" fill="#6b7280" font-size="13">Disable</text>
      <text x="600" y="780" fill="#18181b" font-weight="700">customer-summary</text>
      <text x="600" y="802" fill="#6b7280">Summarize resolved support requests for the team.</text>
      <rect x="936" y="764" width="58" height="24" rx="12" fill="#dcfce7"/>
      <text x="950" y="781" fill="#15803d" font-size="12" font-weight="700">active</text>
      <rect x="1040" y="764" width="92" height="24" rx="12" fill="#efeff1"/>
      <text x="1056" y="781" fill="#18181b" font-size="12">Every hour</text>
      <text x="1210" y="781" fill="#2563eb" font-size="13">Edit</text>
      <text x="1260" y="781" fill="#6b7280" font-size="13">Disable</text>
    </g>
  </g>
</svg>
